<mxfile host="Electron" modified="2025-03-06T20:25:34.473Z" agent="Mozilla/5.0 (Windows NT 10.0; Win64; x64) AppleWebKit/537.36 (KHTML, like Gecko) draw.io/24.5.1 Chrome/124.0.6367.207 Electron/30.0.6 Safari/537.36" etag="it-MYqq8dmSXVJjJzX_d" version="24.5.1" type="device">
  <diagram name="Page-1" id="5f0bae14-7c28-e335-631c-24af17079c00">
    <mxGraphModel dx="1434" dy="844" grid="1" gridSize="10" guides="1" tooltips="1" connect="1" arrows="1" fold="1" page="1" pageScale="1" pageWidth="1100" pageHeight="850" background="none" math="0" shadow="0">
      <root>
        <mxCell id="0" />
        <mxCell id="1" parent="0" />
        <mxCell id="hNGjXtIpF4mTHntng4F8-2" value="User instance" style="swimlane;whiteSpace=wrap;html=1;startSize=20;" parent="1" vertex="1">
          <mxGeometry x="40" y="40" width="1020" height="770" as="geometry">
            <mxRectangle x="120" y="80" width="110" height="30" as="alternateBounds" />
          </mxGeometry>
        </mxCell>
        <mxCell id="N1iORH_VBiGZweCO6mFe-8" value="Chat" style="swimlane;whiteSpace=wrap;html=1;" parent="hNGjXtIpF4mTHntng4F8-2" vertex="1">
          <mxGeometry x="50" y="30" width="230" height="210" as="geometry">
            <mxRectangle x="50" y="260" width="70" height="30" as="alternateBounds" />
          </mxGeometry>
        </mxCell>
        <mxCell id="hNGjXtIpF4mTHntng4F8-6" value="&lt;div style=&quot;padding-left: 0px; padding-bottom: 4px;&quot;&gt;&lt;span style=&quot;background-color: initial;&quot;&gt;Tomasz&lt;/span&gt;&lt;span style=&quot;background-color: initial;&quot;&gt;(16:54)&lt;/span&gt;&lt;span style=&quot;background-color: initial;&quot;&gt;: Hi&lt;/span&gt;&lt;br&gt;&lt;/div&gt;&lt;div style=&quot;padding-bottom: 4px;&quot;&gt;Igor&lt;span style=&quot;background-color: initial;&quot;&gt;(16:54)&lt;/span&gt;&lt;span style=&quot;background-color: initial;&quot;&gt;: Hello&lt;/span&gt;&lt;/div&gt;&lt;div&gt;&lt;div style=&quot;padding-bottom: 4px; margin-right: 0px;&quot;&gt;&lt;span style=&quot;background-color: initial;&quot;&gt;Tomasz&lt;/span&gt;&lt;span style=&quot;background-color: initial;&quot;&gt;(16:55)&lt;/span&gt;&lt;span style=&quot;background-color: initial;&quot;&gt;: How&#39;s your day?&lt;/span&gt;&lt;/div&gt;&lt;/div&gt;&lt;div&gt;&lt;div style=&quot;padding-bottom: 4px;&quot;&gt;&lt;span style=&quot;background-color: initial;&quot;&gt;Igor&lt;/span&gt;&lt;span style=&quot;background-color: initial;&quot;&gt;(16:55)&lt;/span&gt;&lt;span style=&quot;background-color: initial;&quot;&gt;: Pretty good, you?&lt;/span&gt;&lt;/div&gt;&lt;/div&gt;&lt;div&gt;&lt;div style=&quot;&quot;&gt;&lt;span style=&quot;background-color: initial;&quot;&gt;Tomasz&lt;/span&gt;&lt;span style=&quot;background-color: initial;&quot;&gt;(16:56)&lt;/span&gt;&lt;span style=&quot;background-color: initial;&quot;&gt;: Same here, just busy with work.&lt;/span&gt;&lt;/div&gt;&lt;/div&gt;" style="whiteSpace=wrap;html=1;align=left;" parent="N1iORH_VBiGZweCO6mFe-8" vertex="1">
          <mxGeometry y="20" width="230" height="140" as="geometry" />
        </mxCell>
        <mxCell id="N1iORH_VBiGZweCO6mFe-9" value="[Input box]" style="whiteSpace=wrap;html=1;align=left;" parent="N1iORH_VBiGZweCO6mFe-8" vertex="1">
          <mxGeometry y="175" width="230" height="35" as="geometry" />
        </mxCell>
        <mxCell id="N1iORH_VBiGZweCO6mFe-1" value="LogIn as guest:&lt;div&gt;[username]&lt;/div&gt;" style="whiteSpace=wrap;html=1;" parent="hNGjXtIpF4mTHntng4F8-2" vertex="1">
          <mxGeometry x="740" y="30" width="230" height="140" as="geometry" />
        </mxCell>
        <mxCell id="zDekBhmBuryORmEvGft8-25" value="" style="edgeStyle=orthogonalEdgeStyle;rounded=0;orthogonalLoop=1;jettySize=auto;html=1;exitX=0;exitY=0.5;exitDx=0;exitDy=0;" parent="hNGjXtIpF4mTHntng4F8-2" source="zDekBhmBuryORmEvGft8-9" edge="1">
          <mxGeometry relative="1" as="geometry">
            <mxPoint x="280" y="101" as="targetPoint" />
          </mxGeometry>
        </mxCell>
        <mxCell id="zDekBhmBuryORmEvGft8-9" value="Choose chat" style="whiteSpace=wrap;html=1;" parent="hNGjXtIpF4mTHntng4F8-2" vertex="1">
          <mxGeometry x="395" y="30" width="230" height="140" as="geometry" />
        </mxCell>
        <mxCell id="zDekBhmBuryORmEvGft8-12" value="" style="edgeStyle=orthogonalEdgeStyle;rounded=0;orthogonalLoop=1;jettySize=auto;html=1;" parent="hNGjXtIpF4mTHntng4F8-2" source="N1iORH_VBiGZweCO6mFe-1" target="zDekBhmBuryORmEvGft8-9" edge="1">
          <mxGeometry relative="1" as="geometry" />
        </mxCell>
        <mxCell id="zDekBhmBuryORmEvGft8-23" value="Server(application)" style="swimlane;whiteSpace=wrap;html=1;" parent="1" vertex="1">
          <mxGeometry x="1140" y="40" width="1020" height="770" as="geometry" />
        </mxCell>
        <mxCell id="zDekBhmBuryORmEvGft8-6" value="Memory" style="swimlane;whiteSpace=wrap;html=1;startSize=20;" parent="zDekBhmBuryORmEvGft8-23" vertex="1">
          <mxGeometry x="160" y="450" width="850" height="310" as="geometry">
            <mxRectangle x="120" y="80" width="110" height="30" as="alternateBounds" />
          </mxGeometry>
        </mxCell>
        <mxCell id="hNGjXtIpF4mTHntng4F8-4" value="&lt;div&gt;&lt;strong data-end=&quot;182&quot; data-start=&quot;168&quot;&gt;Long-term DB&lt;/strong&gt;&lt;/div&gt;&lt;div&gt;&lt;strong data-end=&quot;182&quot; data-start=&quot;168&quot;&gt;with&lt;/strong&gt;&lt;/div&gt;&lt;strong data-end=&quot;182&quot; data-start=&quot;168&quot;&gt;PostgreSQL&lt;/strong&gt;" style="shape=cylinder3;whiteSpace=wrap;html=1;boundedLbl=1;backgroundOutline=1;size=15;fillColor=#dae8fc;gradientColor=#7ea6e0;strokeColor=#6c8ebf;" parent="zDekBhmBuryORmEvGft8-6" vertex="1">
          <mxGeometry x="270" y="30" width="130" height="230" as="geometry" />
        </mxCell>
        <mxCell id="zDekBhmBuryORmEvGft8-1" value="&lt;div&gt;Short-term&lt;/div&gt;Caching with&lt;div&gt;Redis&lt;/div&gt;" style="shape=hexagon;perimeter=hexagonPerimeter2;whiteSpace=wrap;html=1;fixedSize=1;fillColor=#f8cecc;gradientColor=#ea6b66;strokeColor=#b85450;" parent="zDekBhmBuryORmEvGft8-6" vertex="1">
          <mxGeometry x="10" y="70" width="140" height="100" as="geometry" />
        </mxCell>
        <mxCell id="zDekBhmBuryORmEvGft8-2" style="edgeStyle=orthogonalEdgeStyle;rounded=0;orthogonalLoop=1;jettySize=auto;html=1;exitX=0.023;exitY=0.391;exitDx=0;exitDy=0;exitPerimeter=0;entryX=1;entryY=0.5;entryDx=0;entryDy=0;fillColor=#dae8fc;gradientColor=#7ea6e0;strokeColor=#6c8ebf;" parent="zDekBhmBuryORmEvGft8-6" source="hNGjXtIpF4mTHntng4F8-4" target="zDekBhmBuryORmEvGft8-1" edge="1">
          <mxGeometry relative="1" as="geometry" />
        </mxCell>
        <mxCell id="zDekBhmBuryORmEvGft8-3" value="last&lt;div&gt;50 messages&lt;div&gt;at start&lt;/div&gt;&lt;/div&gt;" style="edgeLabel;html=1;align=center;verticalAlign=middle;resizable=0;points=[];" parent="zDekBhmBuryORmEvGft8-2" vertex="1" connectable="0">
          <mxGeometry x="-0.008" y="-2" relative="1" as="geometry">
            <mxPoint y="-2" as="offset" />
          </mxGeometry>
        </mxCell>
        <mxCell id="hNGjXtIpF4mTHntng4F8-9" value="&lt;div&gt;&lt;span class=&quot;hljs-keyword&quot;&gt;&lt;span class=&quot;hljs-keyword&quot;&gt;CREATE&lt;/span&gt;&amp;nbsp;&lt;span class=&quot;hljs-keyword&quot;&gt;TABLE&lt;/span&gt;&amp;nbsp;users (&lt;br&gt;&lt;span style=&quot;white-space: pre;&quot;&gt;&#x9;&lt;/span&gt;id SERIAL&amp;nbsp;&lt;span class=&quot;hljs-keyword&quot;&gt;PRIMARY&lt;/span&gt;&amp;nbsp;KEY,&lt;br&gt;&lt;span style=&quot;white-space: pre;&quot;&gt;&#x9;&lt;/span&gt;username TEXT&amp;nbsp;&lt;span class=&quot;hljs-keyword&quot;&gt;UNIQUE&lt;/span&gt;&amp;nbsp;&lt;span class=&quot;hljs-keyword&quot;&gt;NOT&lt;/span&gt;&amp;nbsp;&lt;span class=&quot;hljs-keyword&quot;&gt;NULL&lt;/span&gt;&lt;br&gt;);&lt;br&gt;&lt;/span&gt;&lt;/div&gt;&lt;div&gt;&lt;span class=&quot;hljs-keyword&quot;&gt;&lt;br&gt;&lt;/span&gt;&lt;/div&gt;&lt;div&gt;&lt;span class=&quot;hljs-keyword&quot;&gt;&lt;span class=&quot;hljs-keyword&quot;&gt;CREATE&lt;/span&gt;&amp;nbsp;&lt;span class=&quot;hljs-keyword&quot;&gt;TABLE&lt;/span&gt;&amp;nbsp;chat_sessions (&lt;br&gt;&lt;span style=&quot;white-space: pre;&quot;&gt;&#x9;&lt;/span&gt;id SERIAL&amp;nbsp;&lt;span class=&quot;hljs-keyword&quot;&gt;PRIMARY&lt;/span&gt;&amp;nbsp;KEY,&lt;br&gt;&lt;span style=&quot;white-space: pre;&quot;&gt;&#x9;&lt;/span&gt;created_at&amp;nbsp;&lt;span class=&quot;hljs-type&quot;&gt;TIMESTAMP&lt;/span&gt;&amp;nbsp;&lt;span class=&quot;hljs-keyword&quot;&gt;DEFAULT&lt;/span&gt;&amp;nbsp;NOW()&lt;br&gt;);&lt;br&gt;&lt;/span&gt;&lt;/div&gt;&lt;div&gt;&lt;span class=&quot;hljs-keyword&quot;&gt;&lt;br&gt;&lt;/span&gt;&lt;/div&gt;&lt;span class=&quot;hljs-keyword&quot;&gt;CREATE&lt;/span&gt; &lt;span class=&quot;hljs-keyword&quot;&gt;TABLE&lt;/span&gt; messages (&lt;br&gt;    &lt;span style=&quot;white-space: pre;&quot;&gt;&#x9;&lt;/span&gt;id SERIAL &lt;span class=&quot;hljs-keyword&quot;&gt;PRIMARY&lt;/span&gt; KEY,&lt;br&gt;    &lt;span style=&quot;white-space: pre;&quot;&gt;&#x9;&lt;/span&gt;session_id &lt;span class=&quot;hljs-type&quot;&gt;INT&lt;/span&gt; &lt;span class=&quot;hljs-keyword&quot;&gt;REFERENCES&lt;/span&gt;&amp;nbsp; chat_sessions(id) &lt;span class=&quot;hljs-keyword&quot;&gt;ON&lt;/span&gt; &lt;span class=&quot;hljs-keyword&quot;&gt;DELETE&lt;/span&gt; CASCADE,&lt;br&gt;    &lt;span style=&quot;white-space: pre;&quot;&gt;&#x9;&lt;/span&gt;user_id &lt;span class=&quot;hljs-type&quot;&gt;INT&lt;/span&gt; &lt;span class=&quot;hljs-keyword&quot;&gt;REFERENCES&lt;/span&gt; users(id) &lt;span class=&quot;hljs-keyword&quot;&gt;ON&lt;/span&gt; &lt;span class=&quot;hljs-keyword&quot;&gt;DELETE&lt;/span&gt; CASCADE,&lt;br&gt;    &lt;span style=&quot;white-space: pre;&quot;&gt;&#x9;&lt;/span&gt;text TEXT &lt;span class=&quot;hljs-keyword&quot;&gt;NOT&lt;/span&gt; &lt;span class=&quot;hljs-keyword&quot;&gt;NULL&lt;/span&gt;,&lt;br&gt;    &lt;span class=&quot;hljs-type&quot;&gt;&lt;span style=&quot;white-space: pre;&quot;&gt;&#x9;&lt;/span&gt;timestamp&lt;/span&gt; &lt;span class=&quot;hljs-type&quot;&gt;TIMESTAMP&lt;/span&gt; &lt;span class=&quot;hljs-keyword&quot;&gt;DEFAULT&lt;/span&gt; NOW()&lt;br&gt;);" style="whiteSpace=wrap;html=1;align=left;fillColor=#dae8fc;gradientColor=#7ea6e0;strokeColor=#6c8ebf;" parent="zDekBhmBuryORmEvGft8-6" vertex="1">
          <mxGeometry x="410" y="20" width="440" height="290" as="geometry" />
        </mxCell>
        <mxCell id="zDekBhmBuryORmEvGft8-4" style="edgeStyle=orthogonalEdgeStyle;rounded=0;orthogonalLoop=1;jettySize=auto;html=1;exitX=0.5;exitY=1;exitDx=0;exitDy=0;fillColor=#f8cecc;gradientColor=#ea6b66;strokeColor=#b85450;entryX=0;entryY=0;entryDx=0;entryDy=165;entryPerimeter=0;" parent="zDekBhmBuryORmEvGft8-6" source="zDekBhmBuryORmEvGft8-1" target="hNGjXtIpF4mTHntng4F8-4" edge="1">
          <mxGeometry relative="1" as="geometry">
            <mxPoint x="270" y="-210" as="targetPoint" />
            <Array as="points">
              <mxPoint x="80" y="195" />
            </Array>
          </mxGeometry>
        </mxCell>
        <mxCell id="zDekBhmBuryORmEvGft8-5" value="Latest messages&lt;div&gt;sent every&amp;nbsp;&lt;/div&gt;&lt;div&gt;few secounds&lt;/div&gt;" style="edgeLabel;html=1;align=center;verticalAlign=middle;resizable=0;points=[];" parent="zDekBhmBuryORmEvGft8-4" vertex="1" connectable="0">
          <mxGeometry x="-0.1902" y="1" relative="1" as="geometry">
            <mxPoint x="68" as="offset" />
          </mxGeometry>
        </mxCell>
      </root>
    </mxGraphModel>
  </diagram>
</mxfile>
